<svg xmlns="http://www.w3.org/2000/svg" id="Layer_4" width="85" height="128"><style>.st0{fill:none}.st5{opacity:.2;enable-background:new}.st13,.st5{fill:#fff}</style><g id="XMLID_2_"><g id="XMLID_3_"><g id="XMLID_4_"><path id="XMLID_33_" d="M78.7 58L45.1 0H.3l37 64-37 64h44.8l33.5-58c2.2-3.7 2.2-8.3.1-12z" class="st0"/><path id="XMLID_32_" fill="#ffc107" d="M59.4 102.3L48.8 83.9 23.3 128h21.8l14.6-25.2z"/><path id="XMLID_31_" d="M78.7 58L45.1 0H.3l37 64-37 64h44.8l33.5-58c2.2-3.7 2.2-8.3.1-12z" class="st0"/><path id="XMLID_30_" fill="#0f9d58" d="M37.3 64l11.5 19.9L23.3 128H.3z"/><path id="XMLID_29_" d="M78.7 58L45.1 0H.3l37 64-37 64h44.8l33.5-58c2.2-3.7 2.2-8.3.1-12z" class="st0"/><path id="XMLID_28_" fill="#bf360c" d="M45.1 127H23.8l-.5 1h21.8l14.6-25.2-.3-.5z" opacity=".2"/><path id="XMLID_27_" d="M78.7 58L45.1 0H.3l37 64-37 64h44.8l33.5-58c2.2-3.7 2.2-8.3.1-12z" class="st0"/><path id="XMLID_26_" fill="#263238" d="M.8 127l-.5 1h23l.5-1z" opacity=".2"/><path id="XMLID_25_" d="M78.7 58L45.1 0H.3l37 64-37 64h44.8l33.5-58c2.2-3.7 2.2-8.3.1-12z" class="st0"/><path id="XMLID_24_" d="M.3 128h.5l36.8-63.5-.3-.5z" class="st5"/><path id="XMLID_23_" d="M78.7 58L45.1 0H.3l37 64-37 64h44.8l33.5-58c2.2-3.7 2.2-8.3.1-12z" class="st0"/><radialGradient id="XMLID_34_" cx="59.537" cy="27.626" r="44.264" gradientTransform="matrix(1 0 0 -1 0 130)" gradientUnits="userSpaceOnUse"><stop offset="0" stop-color="#bf360c" stop-opacity=".2"/><stop offset="1" stop-color="#bf360c" stop-opacity=".02"/></radialGradient><path id="XMLID_22_" fill="url(#XMLID_34_)" d="M59.7 102.8L48.8 83.9l-2.7 4.6z"/><path id="XMLID_21_" d="M78.7 58L45.1 0H.3l37 64-37 64h44.8l33.5-58c2.2-3.7 2.2-8.3.1-12z" class="st0"/><radialGradient id="XMLID_35_" cx="59.411" cy="27.346" r="44.623" gradientTransform="matrix(1 0 0 -1 0 130)" gradientUnits="userSpaceOnUse"><stop offset="0" stop-color="#263238" stop-opacity=".2"/><stop offset="1" stop-color="#263238" stop-opacity=".02"/></radialGradient><path id="XMLID_20_" fill="url(#XMLID_35_)" d="M46.1 88.5l2.7-4.6L37.3 64l-5.5 9.5z"/><path id="XMLID_19_" d="M78.7 58L45.1 0H.3l37 64-37 64h44.8l33.5-58c2.2-3.7 2.2-8.3.1-12z" class="st0"/><g id="XMLID_16_"><g id="XMLID_17_"><path id="XMLID_18_" fill="#4285f4" d="M23.3 0H.3l59.4 102.8 11.5-19.9z"/></g></g><path id="XMLID_15_" d="M78.7 58L45.1 0H.3l37 64-37 64h44.8l33.5-58c2.2-3.7 2.2-8.3.1-12z" class="st0"/><path id="XMLID_14_" fill="#db4437" d="M78.7 70c2.1-3.7 2.1-8.3 0-12L45.1 0H23.3l47.9 82.9L78.7 70z"/><path id="XMLID_13_" d="M78.7 58L45.1 0H.3l37 64-37 64h44.8l33.5-58c2.2-3.7 2.2-8.3.1-12z" class="st0"/><path id="XMLID_12_" fill="#1a237e" d="M71.2 82.9l-.3-.5-11.2 19.4L.8 0H.3l59.4 102.8 11.5-19.9z" opacity=".2"/><path id="XMLID_11_" d="M78.7 58L45.1 0H.3l37 64-37 64h44.8l33.5-58c2.2-3.7 2.2-8.3.1-12z" class="st0"/><path id="XMLID_10_" d="M45.1 1l33.5 58c1 1.7 1.5 3.6 1.6 5.5.1-2.2-.4-4.5-1.6-6.5L45.1 0H.3l.6 1h44.2z" class="st5"/><path id="XMLID_9_" d="M78.7 58L45.1 0H.3l37 64-37 64h44.8l33.5-58c2.2-3.7 2.2-8.3.1-12z" class="st0"/><path id="XMLID_8_" fill="#3e2723" d="M71.2 82.9L78.7 70c1.2-2 1.7-4.3 1.6-6.5-.1 1.9-.6 3.8-1.6 5.5L71 82.4l.2.5z" opacity=".2"/><path id="XMLID_6_" d="M78.7 58L45.1 0H.3l37 64-37 64h44.8l33.5-58c2.2-3.7 2.2-8.3.1-12z" class="st0"/><radialGradient id="XMLID_36_" cx="-.74" cy="129" r="134.35" gradientTransform="matrix(1 0 0 -1 0 130)" gradientUnits="userSpaceOnUse"><stop offset="0" stop-color="#fff" stop-opacity=".1"/><stop offset="1" stop-color="#fff" stop-opacity="0"/></radialGradient><path id="XMLID_5_" fill="url(#XMLID_36_)" d="M78.7 58L45.1 0H.3l37 64-37 64h44.8l33.5-58c2.2-3.7 2.2-8.3.1-12z"/></g></g></g><g id="XMLID_1_"></g></svg>